<?xml version="1.0" encoding="UTF-8" standalone="no"?>
<!DOCTYPE svg PUBLIC "-//W3C//DTD SVG 1.1//EN"
 "http://www.w3.org/Graphics/SVG/1.1/DTD/svg11.dtd">
<!-- Generated by graphviz version 8.0.3 (20230416.2022)
 -->
<!-- Pages: 1 -->
<svg width="882pt" height="404pt"
 viewBox="0.00 0.00 882.00 404.00" xmlns="http://www.w3.org/2000/svg" xmlns:xlink="http://www.w3.org/1999/xlink">
<g id="graph0" class="graph" transform="scale(1 1) rotate(0) translate(4 400)">
<polygon fill="white" stroke="none" points="-4,4 -4,-400 878,-400 878,4 -4,4"/>
<!-- [root] aws_instance.web (expand) -->
<g id="node1" class="node">
<title>[root] aws_instance.web (expand)</title>
<polygon fill="none" stroke="black" points="616,-252 498,-252 498,-216 616,-216 616,-252"/>
<text text-anchor="middle" x="557" y="-230.3" font-family="Times New Roman,serif" font-size="14.00">aws_instance.web</text>
</g>
<!-- [root] aws_key_pair.key&#45;tf (expand) -->
<g id="node2" class="node">
<title>[root] aws_key_pair.key&#45;tf (expand)</title>
<polygon fill="none" stroke="black" points="547,-180 417,-180 417,-144 547,-144 547,-180"/>
<text text-anchor="middle" x="482" y="-158.3" font-family="Times New Roman,serif" font-size="14.00">aws_key_pair.key&#45;tf</text>
</g>
<!-- [root] aws_instance.web (expand)&#45;&gt;[root] aws_key_pair.key&#45;tf (expand) -->
<g id="edge1" class="edge">
<title>[root] aws_instance.web (expand)&#45;&gt;[root] aws_key_pair.key&#45;tf (expand)</title>
<path fill="none" stroke="black" d="M538.46,-215.7C529.45,-207.28 518.45,-197.02 508.56,-187.79"/>
<polygon fill="black" stroke="black" points="511.28,-185.61 501.59,-181.35 506.51,-190.73 511.28,-185.61"/>
</g>
<!-- [root] aws_security_group.allow_tls (expand) -->
<g id="node3" class="node">
<title>[root] aws_security_group.allow_tls (expand)</title>
<polygon fill="none" stroke="black" points="398.5,-180 215.5,-180 215.5,-144 398.5,-144 398.5,-180"/>
<text text-anchor="middle" x="307" y="-158.3" font-family="Times New Roman,serif" font-size="14.00">aws_security_group.allow_tls</text>
</g>
<!-- [root] aws_instance.web (expand)&#45;&gt;[root] aws_security_group.allow_tls (expand) -->
<g id="edge2" class="edge">
<title>[root] aws_instance.web (expand)&#45;&gt;[root] aws_security_group.allow_tls (expand)</title>
<path fill="none" stroke="black" d="M497.75,-216.41C462.38,-206.51 417.19,-193.85 379.67,-183.35"/>
<polygon fill="black" stroke="black" points="380.88,-179.77 370.31,-180.45 379,-186.51 380.88,-179.77"/>
</g>
<!-- [root] data.aws_ami.ubuntu (expand) -->
<g id="node4" class="node">
<title>[root] data.aws_ami.ubuntu (expand)</title>
<polygon fill="none" stroke="black" points="699,-180 565,-180 565,-144 699,-144 699,-180"/>
<text text-anchor="middle" x="632" y="-158.3" font-family="Times New Roman,serif" font-size="14.00">data.aws_ami.ubuntu</text>
</g>
<!-- [root] aws_instance.web (expand)&#45;&gt;[root] data.aws_ami.ubuntu (expand) -->
<g id="edge3" class="edge">
<title>[root] aws_instance.web (expand)&#45;&gt;[root] data.aws_ami.ubuntu (expand)</title>
<path fill="none" stroke="black" d="M575.54,-215.7C584.55,-207.28 595.55,-197.02 605.44,-187.79"/>
<polygon fill="black" stroke="black" points="607.49,-190.73 612.41,-181.35 602.72,-185.61 607.49,-190.73"/>
</g>
<!-- [root] var.instance_type -->
<g id="node9" class="node">
<title>[root] var.instance_type</title>
<polygon fill="none" stroke="black" points="825,-180 717,-180 717,-144 831,-144 831,-174 825,-180"/>
<polyline fill="none" stroke="black" points="825,-180 825,-174"/>
<polyline fill="none" stroke="black" points="831,-174 825,-174"/>
<text text-anchor="middle" x="774" y="-158.3" font-family="Times New Roman,serif" font-size="14.00">var.instance_type</text>
</g>
<!-- [root] aws_instance.web (expand)&#45;&gt;[root] var.instance_type -->
<g id="edge4" class="edge">
<title>[root] aws_instance.web (expand)&#45;&gt;[root] var.instance_type</title>
<path fill="none" stroke="black" d="M611.2,-215.52C641.09,-205.88 678.38,-193.84 709.73,-183.73"/>
<polygon fill="black" stroke="black" points="710.67,-186.78 719.12,-180.38 708.53,-180.12 710.67,-186.78"/>
</g>
<!-- [root] provider[&quot;registry.terraform.io/hashicorp/aws&quot;] -->
<g id="node5" class="node">
<title>[root] provider[&quot;registry.terraform.io/hashicorp/aws&quot;]</title>
<polygon fill="none" stroke="black" points="395,-108 137.77,-90 395,-72 652.23,-90 395,-108"/>
<text text-anchor="middle" x="395" y="-86.3" font-family="Times New Roman,serif" font-size="14.00">provider[&quot;registry.terraform.io/hashicorp/aws&quot;]</text>
</g>
<!-- [root] aws_key_pair.key&#45;tf (expand)&#45;&gt;[root] provider[&quot;registry.terraform.io/hashicorp/aws&quot;] -->
<g id="edge5" class="edge">
<title>[root] aws_key_pair.key&#45;tf (expand)&#45;&gt;[root] provider[&quot;registry.terraform.io/hashicorp/aws&quot;]</title>
<path fill="none" stroke="black" d="M460.49,-143.7C449.24,-134.64 435.31,-123.44 423.2,-113.69"/>
<polygon fill="black" stroke="black" points="425.76,-110.45 415.77,-106.91 421.37,-115.9 425.76,-110.45"/>
</g>
<!-- [root] aws_security_group.allow_tls (expand)&#45;&gt;[root] provider[&quot;registry.terraform.io/hashicorp/aws&quot;] -->
<g id="edge6" class="edge">
<title>[root] aws_security_group.allow_tls (expand)&#45;&gt;[root] provider[&quot;registry.terraform.io/hashicorp/aws&quot;]</title>
<path fill="none" stroke="black" d="M328.75,-143.7C340.14,-134.64 354.22,-123.44 366.47,-113.69"/>
<polygon fill="black" stroke="black" points="368.36,-115.87 374,-106.91 364,-110.39 368.36,-115.87"/>
</g>
<!-- [root] var.inbound_ports -->
<g id="node8" class="node">
<title>[root] var.inbound_ports</title>
<polygon fill="none" stroke="black" points="114,-108 0,-108 0,-72 120,-72 120,-102 114,-108"/>
<polyline fill="none" stroke="black" points="114,-108 114,-102"/>
<polyline fill="none" stroke="black" points="120,-102 114,-102"/>
<text text-anchor="middle" x="60" y="-86.3" font-family="Times New Roman,serif" font-size="14.00">var.inbound_ports</text>
</g>
<!-- [root] aws_security_group.allow_tls (expand)&#45;&gt;[root] var.inbound_ports -->
<g id="edge7" class="edge">
<title>[root] aws_security_group.allow_tls (expand)&#45;&gt;[root] var.inbound_ports</title>
<path fill="none" stroke="black" d="M245.31,-143.52C210.58,-133.68 167.08,-121.35 130.95,-111.11"/>
<polygon fill="black" stroke="black" points="132.05,-107.5 121.48,-108.14 130.15,-114.23 132.05,-107.5"/>
</g>
<!-- [root] data.aws_ami.ubuntu (expand)&#45;&gt;[root] provider[&quot;registry.terraform.io/hashicorp/aws&quot;] -->
<g id="edge8" class="edge">
<title>[root] data.aws_ami.ubuntu (expand)&#45;&gt;[root] provider[&quot;registry.terraform.io/hashicorp/aws&quot;]</title>
<path fill="none" stroke="black" d="M572.81,-143.52C536.24,-132.72 489.53,-118.92 453.16,-108.18"/>
<polygon fill="black" stroke="black" points="454.3,-104.57 443.71,-105.09 452.31,-111.28 454.3,-104.57"/>
</g>
<!-- [root] var.image_name -->
<g id="node7" class="node">
<title>[root] var.image_name</title>
<polygon fill="none" stroke="black" points="771.5,-108 670.5,-108 670.5,-72 777.5,-72 777.5,-102 771.5,-108"/>
<polyline fill="none" stroke="black" points="771.5,-108 771.5,-102"/>
<polyline fill="none" stroke="black" points="777.5,-102 771.5,-102"/>
<text text-anchor="middle" x="724" y="-86.3" font-family="Times New Roman,serif" font-size="14.00">var.image_name</text>
</g>
<!-- [root] data.aws_ami.ubuntu (expand)&#45;&gt;[root] var.image_name -->
<g id="edge9" class="edge">
<title>[root] data.aws_ami.ubuntu (expand)&#45;&gt;[root] var.image_name</title>
<path fill="none" stroke="black" d="M654.74,-143.7C666.13,-135.03 680.1,-124.4 692.51,-114.96"/>
<polygon fill="black" stroke="black" points="694.36,-117.19 700.2,-108.35 690.12,-111.62 694.36,-117.19"/>
</g>
<!-- [root] var.owners -->
<g id="node10" class="node">
<title>[root] var.owners</title>
<polygon fill="none" stroke="black" points="868,-108 796,-108 796,-72 874,-72 874,-102 868,-108"/>
<polyline fill="none" stroke="black" points="868,-108 868,-102"/>
<polyline fill="none" stroke="black" points="874,-102 868,-102"/>
<text text-anchor="middle" x="835" y="-86.3" font-family="Times New Roman,serif" font-size="14.00">var.owners</text>
</g>
<!-- [root] data.aws_ami.ubuntu (expand)&#45;&gt;[root] var.owners -->
<g id="edge10" class="edge">
<title>[root] data.aws_ami.ubuntu (expand)&#45;&gt;[root] var.owners</title>
<path fill="none" stroke="black" d="M682.64,-143.61C710.34,-134.08 745.51,-121.98 785.44,-108.19"/>
<polygon fill="black" stroke="black" points="786.38,-111.22 794.69,-104.65 784.09,-104.61 786.38,-111.22"/>
</g>
<!-- [root] var.access_key -->
<g id="node6" class="node">
<title>[root] var.access_key</title>
<polygon fill="none" stroke="black" points="335,-36 239,-36 239,0 341,0 341,-30 335,-36"/>
<polyline fill="none" stroke="black" points="335,-36 335,-30"/>
<polyline fill="none" stroke="black" points="341,-30 335,-30"/>
<text text-anchor="middle" x="290" y="-14.3" font-family="Times New Roman,serif" font-size="14.00">var.access_key</text>
</g>
<!-- [root] provider[&quot;registry.terraform.io/hashicorp/aws&quot;]&#45;&gt;[root] var.access_key -->
<g id="edge12" class="edge">
<title>[root] provider[&quot;registry.terraform.io/hashicorp/aws&quot;]&#45;&gt;[root] var.access_key</title>
<path fill="none" stroke="black" d="M371.44,-73.29C357.82,-64.21 340.42,-52.61 325.2,-42.47"/>
<polygon fill="black" stroke="black" points="327.33,-39.01 317.06,-36.38 323.44,-44.84 327.33,-39.01"/>
</g>
<!-- [root] var.region -->
<g id="node11" class="node">
<title>[root] var.region</title>
<polygon fill="none" stroke="black" points="425,-36 359,-36 359,0 431,0 431,-30 425,-36"/>
<polyline fill="none" stroke="black" points="425,-36 425,-30"/>
<polyline fill="none" stroke="black" points="431,-30 425,-30"/>
<text text-anchor="middle" x="395" y="-14.3" font-family="Times New Roman,serif" font-size="14.00">var.region</text>
</g>
<!-- [root] provider[&quot;registry.terraform.io/hashicorp/aws&quot;]&#45;&gt;[root] var.region -->
<g id="edge13" class="edge">
<title>[root] provider[&quot;registry.terraform.io/hashicorp/aws&quot;]&#45;&gt;[root] var.region</title>
<path fill="none" stroke="black" d="M395,-71.7C395,-64.24 395,-55.32 395,-46.97"/>
<polygon fill="black" stroke="black" points="398.5,-47.1 395,-37.1 391.5,-47.1 398.5,-47.1"/>
</g>
<!-- [root] var.secret_key -->
<g id="node12" class="node">
<title>[root] var.secret_key</title>
<polygon fill="none" stroke="black" points="541,-36 449,-36 449,0 547,0 547,-30 541,-36"/>
<polyline fill="none" stroke="black" points="541,-36 541,-30"/>
<polyline fill="none" stroke="black" points="547,-30 541,-30"/>
<text text-anchor="middle" x="498" y="-14.3" font-family="Times New Roman,serif" font-size="14.00">var.secret_key</text>
</g>
<!-- [root] provider[&quot;registry.terraform.io/hashicorp/aws&quot;]&#45;&gt;[root] var.secret_key -->
<g id="edge14" class="edge">
<title>[root] provider[&quot;registry.terraform.io/hashicorp/aws&quot;]&#45;&gt;[root] var.secret_key</title>
<path fill="none" stroke="black" d="M418.12,-73.29C431.48,-64.21 448.54,-52.61 463.47,-42.47"/>
<polygon fill="black" stroke="black" points="465.13,-44.89 471.43,-36.38 461.19,-39.1 465.13,-44.89"/>
</g>
<!-- [root] provider[&quot;registry.terraform.io/hashicorp/aws&quot;] (close) -->
<g id="node13" class="node">
<title>[root] provider[&quot;registry.terraform.io/hashicorp/aws&quot;] (close)</title>
<ellipse fill="none" stroke="black" cx="557" cy="-306" rx="232.86" ry="18"/>
<text text-anchor="middle" x="557" y="-302.3" font-family="Times New Roman,serif" font-size="14.00">[root] provider[&quot;registry.terraform.io/hashicorp/aws&quot;] (close)</text>
</g>
<!-- [root] provider[&quot;registry.terraform.io/hashicorp/aws&quot;] (close)&#45;&gt;[root] aws_instance.web (expand) -->
<g id="edge11" class="edge">
<title>[root] provider[&quot;registry.terraform.io/hashicorp/aws&quot;] (close)&#45;&gt;[root] aws_instance.web (expand)</title>
<path fill="none" stroke="black" d="M557,-287.7C557,-280.24 557,-271.32 557,-262.97"/>
<polygon fill="black" stroke="black" points="560.5,-263.1 557,-253.1 553.5,-263.1 560.5,-263.1"/>
</g>
<!-- [root] root -->
<g id="node14" class="node">
<title>[root] root</title>
<ellipse fill="none" stroke="black" cx="557" cy="-378" rx="49.29" ry="18"/>
<text text-anchor="middle" x="557" y="-374.3" font-family="Times New Roman,serif" font-size="14.00">[root] root</text>
</g>
<!-- [root] root&#45;&gt;[root] provider[&quot;registry.terraform.io/hashicorp/aws&quot;] (close) -->
<g id="edge15" class="edge">
<title>[root] root&#45;&gt;[root] provider[&quot;registry.terraform.io/hashicorp/aws&quot;] (close)</title>
<path fill="none" stroke="black" d="M557,-359.7C557,-352.24 557,-343.32 557,-334.97"/>
<polygon fill="black" stroke="black" points="560.5,-335.1 557,-325.1 553.5,-335.1 560.5,-335.1"/>
</g>
</g>
</svg>
